<svg width="43" height="32" viewBox="0 0 43 32" fill="none" xmlns="http://www.w3.org/2000/svg">
<path d="M27 32C35.8365 32 43 24.8366 43 16C43 7.16344 35.8365 0 27 0C18.1634 0 11 7.16344 11 16C11 24.8366 18.1634 32 27 32Z" fill="#0267DD"/>
<path fill-rule="evenodd" clip-rule="evenodd" d="M27 28C33.6274 28 39 22.6274 39 16C39 9.37258 33.6274 4 27 4C20.3726 4 15 9.37258 15 16C15 22.6274 20.3726 28 27 28ZM40 16C40 23.1797 34.1797 29 27 29C19.8203 29 14 23.1797 14 16C14 8.8203 19.8203 3 27 3C34.1797 3 40 8.8203 40 16Z" fill="white"/>
<path d="M19 19.8184V11.1172H20.3611L22.1542 15.3066V11.1172H23.7529V19.8184H22.4459L20.6527 15.3066V19.8184H19Z" fill="white"/>
<path d="M24.4826 19.8184L26.1785 15.1348L24.5582 11.1172H26.3837L27.3451 13.4697L28.1229 11.1172H29.7324L28.1985 15.6396L29.9052 19.8184H28.0905L27.0211 17.2188L26.0813 19.8184H24.4826Z" fill="white"/>
<path d="M32.4723 21V19.9365C31.7306 19.9007 31.1725 19.6644 30.798 19.2275C30.4307 18.7835 30.2327 18.1032 30.2039 17.1865L31.8566 16.9395C31.8638 17.3118 31.8962 17.6126 31.9538 17.8418C32.0114 18.071 32.0942 18.2357 32.2023 18.3359C32.3175 18.4362 32.4543 18.4863 32.6127 18.4863C32.8144 18.4863 32.944 18.4183 33.0016 18.2822C33.0664 18.1462 33.0988 18.0029 33.0988 17.8525C33.0988 17.4945 33.0124 17.1937 32.8396 16.9502C32.674 16.6995 32.4435 16.4489 32.1482 16.1982L31.3813 15.543C31.1653 15.3496 30.9672 15.1527 30.7872 14.9521C30.6144 14.7445 30.4739 14.5081 30.3659 14.2432C30.2579 13.971 30.2039 13.6488 30.2039 13.2764C30.2039 12.596 30.3983 12.0625 30.7872 11.6758C31.1833 11.2891 31.7126 11.0706 32.3751 11.0205V10H32.926V11.0098C33.3437 11.0313 33.6785 11.1279 33.9306 11.2998C34.1826 11.4645 34.3699 11.6722 34.4923 11.9229C34.6219 12.1663 34.7083 12.4277 34.7516 12.707C34.802 12.9792 34.8308 13.2334 34.838 13.4697L33.1636 13.6738C33.1564 13.416 33.1384 13.1904 33.1096 12.9971C33.088 12.8037 33.0376 12.6569 32.9584 12.5566C32.8864 12.4492 32.7676 12.3991 32.6019 12.4062C32.4219 12.4062 32.2887 12.4814 32.2023 12.6318C32.1158 12.7822 32.0726 12.9326 32.0726 13.083C32.0726 13.4268 32.1591 13.7061 32.3319 13.9209C32.5119 14.1286 32.7064 14.3255 32.9152 14.5117L33.6497 15.1455C33.8946 15.3675 34.1178 15.6038 34.3195 15.8545C34.5283 16.1051 34.6939 16.3844 34.8164 16.6924C34.9388 17.0003 35 17.3548 35 17.7559C35 18.1354 34.9208 18.4827 34.7624 18.7979C34.6039 19.113 34.3771 19.3708 34.0818 19.5713C33.7866 19.7646 33.4337 19.8828 33.0232 19.9258V21H32.4723Z" fill="white"/>
<path d="M16 32C24.8366 32 32 24.8366 32 16C32 7.16344 24.8366 0 16 0C7.16344 0 0 7.16344 0 16C0 24.8366 7.16344 32 16 32Z" fill="#C9FFC6"/>
<path d="M23.304 10L21.6158 16.0861C21.3946 16.883 21.2188 17.6918 21.0892 18.5086C21.0892 18.5132 21.0877 18.5179 21.0869 18.5226H21.0385C20.9902 18.0663 20.8723 17.6105 20.7981 17.2231L18.9403 10H15.1356L13.2808 17.2177C13.2068 17.6048 13.0885 18.061 13.0405 18.5173H12.9921C12.9921 18.5126 12.9906 18.5079 12.9898 18.5032C12.8603 17.6864 12.6844 16.8777 12.4632 16.0808L10.7765 10.0002H8.07919L8.86952 12.8613H6V14.9106H9.43452L9.99629 16.9461H6V19H10.5632L11.4665 22.2794H14.6858L16.8644 13.674L16.8652 13.6756C16.9356 13.3595 16.9958 13.0082 17.0142 12.7681H17.0626C17.081 13.0082 17.1411 13.3595 17.2116 13.6756L19.3911 22.2794H22.6102L26 10H23.304Z" fill="#053F33"/>
</svg>
