<svg width="20" height="17" viewBox="0 0 20 17" fill="none" xmlns="http://www.w3.org/2000/svg">
  <path d="M17.8187 4.01553C17.8308 4.19053 17.8308 4.36553 17.8308 4.54215C17.8308 9.9236 13.734 16.13 6.24286 16.13V16.1268C4.02996 16.1301 1.86303 15.4962 0.00012207 14.301C0.321896 14.3397 0.645283 14.3591 0.969477 14.3599C2.80335 14.3615 4.5848 13.7462 6.02754 12.6131C4.2848 12.58 2.75657 11.4438 2.2227 9.78489C2.83319 9.90263 3.46222 9.87844 4.06141 9.71473C2.16141 9.33086 0.794477 7.6615 0.794477 5.72279C0.794477 5.70505 0.794477 5.68811 0.794477 5.67118C1.36061 5.9865 1.99448 6.1615 2.64286 6.18086C0.853348 4.98489 0.301735 2.60424 1.38238 0.742954C3.45012 3.28731 6.50093 4.83408 9.77593 4.99779C9.4477 3.58328 9.89609 2.10102 10.9542 1.10666C12.5945 -0.435272 15.1743 -0.35624 16.7163 1.28328C17.6283 1.10344 18.5025 0.76876 19.3025 0.294566C18.9985 1.23731 18.3622 2.03812 17.5122 2.54699C18.3195 2.45182 19.1082 2.2357 19.8509 1.90586C19.3042 2.72521 18.6154 3.43892 17.8187 4.01553Z" fill="white"/>
</svg>
